<?xml version="1.0" encoding="UTF-8" standalone="no"?>
<!-- Generator: Adobe Illustrator 14.0.0, SVG Export Plug-In . SVG Version: 6.00 Build 43363)  -->

<svg
   xmlns:dc="http://purl.org/dc/elements/1.1/"
   xmlns:cc="http://creativecommons.org/ns#"
   xmlns:rdf="http://www.w3.org/1999/02/22-rdf-syntax-ns#"
   xmlns:svg="http://www.w3.org/2000/svg"
   xmlns="http://www.w3.org/2000/svg"
   xmlns:sodipodi="http://sodipodi.sourceforge.net/DTD/sodipodi-0.dtd"
   xmlns:inkscape="http://www.inkscape.org/namespaces/inkscape"
   version="1.1"
   id="Layer_1"
   x="0px"
   y="0px"
   width="147.96912"
   height="147.69725"
   viewBox="0 0 147.96912 147.69725"
   enable-background="new 0 0 100 100"
   xml:space="preserve"
   inkscape:version="0.91 r13725"
   sodipodi:docname="ertikazos.svg"><metadata
     id="metadata17"><rdf:RDF><cc:Work
         rdf:about=""><dc:format>image/svg+xml</dc:format><dc:type
           rdf:resource="http://purl.org/dc/dcmitype/StillImage" /></cc:Work></rdf:RDF></metadata><defs
     id="defs15" /><sodipodi:namedview
     pagecolor="#ffffff"
     bordercolor="#666666"
     borderopacity="1"
     objecttolerance="10"
     gridtolerance="10"
     guidetolerance="10"
     inkscape:pageopacity="0"
     inkscape:pageshadow="2"
     inkscape:window-width="1618"
     inkscape:window-height="920"
     id="namedview13"
     showgrid="false"
     fit-margin-top="0.8"
     fit-margin-left="0.8"
     fit-margin-right="0.8"
     fit-margin-bottom="0.8"
     inkscape:zoom="2.36"
     inkscape:cx="7.7505755"
     inkscape:cy="103.4057"
     inkscape:window-x="267"
     inkscape:window-y="42"
     inkscape:window-maximized="0"
     inkscape:current-layer="g3" /><g
     id="g3"
     transform="translate(-6.116,-5.7084683)"><path
       d="m 32.855,45.449 c 1.029,-4.396 3.73,-8.404 7.87,-10.975 4.141,-2.571 8.937,-3.219 13.335,-2.191 3.203,0.751 6.205,2.39 8.596,4.831 L 77.812,27.706 C 72.727,21.202 65.694,16.902 58.071,15.122 49.28,13.066 39.709,14.359 31.431,19.501 23.154,24.644 17.75,32.646 15.695,41.437 c -0.549,2.317 -0.856,4.693 -0.922,7.076 -0.815,6.17 1.807,12.385 3.742,15.984 4.945,-3.058 9.892,-6.112 14.86,-9.198 -1.129,-3.216 -1.271,-6.639 -0.52,-9.85 z"
       id="path5"
       inkscape:connector-curvature="0"
       style="fill:none" /><path
       d="m 52.31,39.76 c -2.482,-0.579 -5.195,-0.214 -7.531,1.235 -2.338,1.458 -3.865,3.722 -4.448,6.205 -0.578,2.484 -0.215,5.197 1.235,7.531 1.451,2.336 3.722,3.863 6.206,4.446 2.484,0.583 5.195,0.22 7.531,-1.233 2.336,-1.453 3.869,-3.722 4.447,-6.205 0.581,-2.482 0.213,-5.188 -1.234,-7.53 -1.454,-2.336 -3.723,-3.867 -6.206,-4.449 z m 0.477,13.989 c -2.399,1.495 -5.558,0.753 -7.047,-1.646 -1.491,-2.399 -0.751,-5.558 1.648,-7.046 2.396,-1.492 5.555,-0.75 7.044,1.649 1.494,2.399 0.754,5.556 -1.645,7.043 z"
       id="path7"
       inkscape:connector-curvature="0"
       style="fill:none" /><path
       d="m 152.85894,71.543302 -12.63274,7.844877 c 0,4.651838 -0.53047,9.305377 -1.58292,13.817797 -3.49568,14.946754 -12.69054,28.577524 -26.76677,37.303124 -14.074533,8.7375 -30.347467,10.941 -45.294219,7.44872 C 53.624812,134.9229 41.670471,127.6119 33.021384,116.55698 l 25.772138,-16.0026 c 4.055057,4.15367 9.148956,6.95396 14.606705,8.22573 7.479327,1.74954 15.621745,0.64779 22.672613,-3.73031 7.03046,-4.3713 11.6313,-11.192635 13.38424,-18.66006 1.27687,-5.45945 1.03204,-11.267447 -0.88752,-16.747299 12.4049,-7.702058 24.65168,-15.183085 36.96817,-22.832435 -0.98273,-1.951868 -2.07428,-3.895234 -3.25085,-5.789294 C 131.64852,23.89256 115.07125,12.696523 96.865148,8.4340379 78.66245,4.1817542 58.837728,6.8715234 41.709577,17.508184 24.579725,28.139743 13.383688,44.720419 9.1263034,62.924819 7.5807913,69.508122 6.9568056,76.319257 7.2832504,83.135493 L 6.916,83.283413 c 0,0 1.973971,22.354667 11.279348,34.795277 10.63496,17.13495 27.213936,28.33779 45.411535,32.60368 18.206099,4.25058 38.034217,1.55571 55.157267,-9.08095 17.13496,-10.63496 28.33099,-27.21564 32.58498,-45.423436 1.87536,-8.0132 2.40923,-16.347745 1.50981,-24.634682 z M 96.746132,83.409231 c -0.982735,4.221679 -3.589193,8.079509 -7.560938,10.549948 -3.971745,2.470439 -8.581078,3.087624 -12.804458,2.096388 -4.223379,-0.991236 -8.08461,-3.587493 -10.551648,-7.559238 -2.465339,-3.968345 -3.082523,-8.581078 -2.099789,-12.804458 0.991237,-4.221679 3.587493,-8.069308 7.562639,-10.549948 3.971745,-2.463638 8.584478,-3.084223 12.804458,-2.099788 4.221679,0.989536 8.081209,3.592593 10.551648,7.562638 2.460238,3.983647 3.085924,8.584478 2.098088,12.804458 z M 26.637007,105.10081 c -3.289951,-6.120842 -7.747963,-16.686092 -6.362273,-27.176532 0.110515,-4.051656 0.634187,-8.091411 1.567615,-12.030852 3.49568,-14.946752 12.682041,-28.550319 26.754873,-37.29632 14.074532,-8.7426 30.347466,-10.941002 45.294218,-7.445322 12.96088,3.026415 24.91862,10.339119 33.56431,21.395737 L 101.68701,58.543317 C 97.621752,54.394748 92.517652,51.606365 87.071804,50.329489 79.592477,48.58165 71.438158,49.683401 64.399191,54.054701 c -7.037266,4.3713 -11.629596,11.184135 -13.380837,18.660062 -1.276875,5.459449 -1.037142,11.279348 0.884122,16.745598 -8.44676,5.248621 -16.857814,10.441134 -25.265469,15.640449 z"
       id="path9"
       style="fill:#6e8cd7;fill-opacity:1"
       inkscape:connector-curvature="0" /></g></svg>